<svg xmlns="http://www.w3.org/2000/svg" viewBox="0 0 24 24" fill="none">
  <rect width="24" height="24" rx="5" fill="#3b82f6" />
  <path
    stroke="#ffffff"
    stroke-width="2"
    stroke-linecap="round"
    stroke-linejoin="round"
    d="M9.75 3.104v5.714a2.25 2.25 0 01-.659 1.591L5 14.5M9.75 3.104c-.251.023-.501.05-.75.082m.75-.082a24.301 24.301 0 014.5 0m0 0v5.714c0 .597.237 1.17.659 1.591L19.8 14.5M14.25 3.104c.251.023.501.05.75.082M19.8 14.5a2.25 2.25 0 010 3.182L16 21.5M5 14.5a2.25 2.25 0 000 3.182L8.8 21.5"
  />
</svg>
