<svg xmlns="http://www.w3.org/2000/svg" viewBox="0 0 24 24" fill="#FF7A59">
  <path d="M18.164 7.93V5.084a2.198 2.198 0 0 0 1.267-1.984v-.066a2.198 2.198 0 0 0-2.198-2.198h-.066a2.198 2.198 0 0 0-2.198 2.198v.066c0 .865.503 1.612 1.233 1.968V7.93a6.155 6.155 0 0 0-2.755 1.236l-7.28-5.668a2.625 2.625 0 0 0 .076-.606 2.634 2.634 0 1 0-2.634 2.634c.39 0 .762-.088 1.096-.243l7.174 5.585a6.17 6.17 0 0 0-.913 3.238c0 1.224.36 2.365.975 3.325l-2.144 2.144a1.812 1.812 0 0 0-.538-.086 1.848 1.848 0 1 0 1.848 1.848 1.81 1.81 0 0 0-.086-.537l2.106-2.106a6.187 6.187 0 1 0 5.037-10.564zM17.2 18.273a3.47 3.47 0 0 1-3.484-3.484c0-1.924 1.56-3.484 3.484-3.484s3.484 1.56 3.484 3.484a3.47 3.47 0 0 1-3.484 3.484z"/>
</svg>
