<svg xmlns="http://www.w3.org/2000/svg" viewBox="0 0 100 100" fill="none">
  <path d="M6.017 4.313l55.333-4.087c6.797-.583 8.543-.19 12.817 2.917l17.663 12.443c2.913 2.14 3.883 2.723 3.883 5.053v68.243c0 4.277-1.553 6.807-6.99 7.193L24.467 99.967c-4.08.193-6.023-.39-8.16-3.113L3.3 79.94c-2.333-3.113-3.3-5.443-3.3-8.167V11.113c0-3.497 1.553-6.413 6.017-6.8z" fill="#fff"/>
  <path fill-rule="evenodd" clip-rule="evenodd" d="M61.35.227l-55.333 4.087C1.553 4.7 0 7.617 0 11.113v60.66c0 2.723.967 5.053 3.3 8.167l13.007 16.913c2.137 2.723 4.08 3.307 8.16 3.113l64.257-3.89c5.433-.387 6.99-2.917 6.99-7.193V20.64c0-2.21-.873-2.847-3.443-4.733L75.35 3.57l-.027-.02C71.657.247 69.857-.36 63.06.22l-1.71.007zM25.92 19.523c-5.247.353-6.437.433-9.417-1.99L8.927 11.507c-.77-.78-.383-1.753 1.557-1.947l53.193-3.887c4.467-.39 6.793 1.167 8.543 2.527l9.123 6.61c.39.197 1.36 1.36.193 1.36l-54.933 3.307-.683.047zM19.803 88.3V30.367c0-2.53.78-3.697 3.3-3.893L86.35 22.78c2.333-.193 3.497 1.17 3.497 3.7v57.547c0 2.53-.39 4.67-3.883 4.863l-60.377 3.5c-3.493.193-4.8-1.167-5.783-3.09v-1zM74.827 35.233c.39 1.75 0 3.5-1.75 3.7l-2.917.577v42.773c-2.527 1.36-4.853 2.137-6.797 2.137-3.107 0-3.883-.973-6.21-3.887l-19.03-29.94v28.967l6.077 1.36s0 3.5-4.853 3.5l-13.39.777c-.39-.78 0-2.723 1.357-3.11l3.497-.95V36.2l-4.853-.39c-.39-1.75.583-4.277 3.3-4.473l14.367-.967 19.8 30.327V34.267l-5.063-.583c-.39-2.143 1.163-3.7 3.103-3.89l13.363-.56z" fill="#000"/>
</svg>
